<?xml version="1.0" encoding="UTF-8"?>
<!DOCTYPE svg PUBLIC "-//W3C//DTD SVG 1.1//EN" "http://www.w3.org/Graphics/SVG/1.1/DTD/svg11.dtd">
<svg xmlns="http://www.w3.org/2000/svg" version="1.1" width="1280px" height="568px" style="shape-rendering:geometricPrecision; text-rendering:geometricPrecision; image-rendering:optimizeQuality; fill-rule:evenodd; clip-rule:evenodd" xmlns:xlink="http://www.w3.org/1999/xlink">
<g><path style="opacity:0.993" fill="#ffffff" d="M 940.5,-0.5 C 998.167,-0.5 1055.83,-0.5 1113.5,-0.5C 1146.46,0.397226 1177.8,8.23056 1207.5,23C 1245.66,47.4364 1268.16,82.2698 1275,127.5C 1276.33,135.458 1277.33,143.458 1278,151.5C 1278.67,192.167 1278.67,232.833 1278,273.5C 1276.25,313.107 1262.92,348.107 1238,378.5C 1213.44,402.696 1183.94,417.196 1149.5,422C 1134.25,424.295 1118.92,425.629 1103.5,426C 1059.83,426.667 1016.17,426.667 972.5,426C 954.055,426.223 936.055,423.556 918.5,418C 908.2,413.854 898.867,408.187 890.5,401C 883.302,394.136 876.468,386.97 870,379.5C 852.268,357.034 835.268,334.034 819,310.5C 809.937,294.488 809.271,278.155 817,261.5C 819.748,256.334 822.748,251.334 826,246.5C 852.167,211.667 878.333,176.833 904.5,142C 964.169,141.167 1023.84,141.333 1083.5,142.5C 1041.51,197.81 1000.01,253.476 959,309.5C 948.156,335.305 956.656,350.138 984.5,354C 1023.86,354.951 1063.19,354.618 1102.5,353C 1122.03,349.136 1132.86,337.303 1135,317.5C 1135.67,247.5 1135.67,177.5 1135,107.5C 1132.17,86.6667 1120.33,74.8333 1099.5,72C 1034.5,71.5 969.501,71.3333 904.5,71.5C 904.486,58.8145 904.986,46.1478 906,33.5C 910.128,14.538 921.628,3.20462 940.5,-0.5 Z"/></g>
<g><path style="opacity:0.995" fill="#ffffff" d="M 212.5,567.5 C 164.833,567.5 117.167,567.5 69.5,567.5C 69.5,449.5 69.5,331.5 69.5,213.5C 46.1667,213.5 22.8333,213.5 -0.5,213.5C -0.5,200.833 -0.5,188.167 -0.5,175.5C 3.11452,156.054 14.7812,144.888 34.5,142C 152.833,141.333 271.167,141.333 389.5,142C 423.465,142.401 451.298,155.567 473,181.5C 490.05,202.882 506.716,224.548 523,246.5C 538.577,266.107 540.91,287.107 530,309.5C 501.776,348.779 472.943,387.612 443.5,426C 384.168,426.5 324.834,426.667 265.5,426.5C 265.351,425.448 265.517,424.448 266,423.5C 306.333,369.833 346.667,316.167 387,262.5C 392.838,253.996 395.171,244.663 394,234.5C 390.046,222.23 381.546,215.397 368.5,214C 316.501,213.5 264.501,213.333 212.5,213.5C 212.5,331.5 212.5,449.5 212.5,567.5 Z"/></g>
<g><path style="opacity:0.996" fill="#ffffff" d="M 692.5,141.5 C 751.504,141.167 810.504,141.5 869.5,142.5C 799.045,236.577 728.712,330.744 658.5,425C 597.833,425.667 537.167,425.667 476.5,425C 548.63,330.56 620.63,236.06 692.5,141.5 Z"/></g>
</svg>
